<svg width="18" height="23" viewBox="0 0 18 23" fill="none" xmlns="http://www.w3.org/2000/svg">
<path d="M14.75 1.9748C15.0113 1.36813 14.8167 0.66013 14.2807 0.270797C13.7447 -0.118536 13.014 -0.0838696 12.514 0.349464L1.18201 10.2668C0.739345 10.6561 0.579345 11.2801 0.787345 11.8295C0.995345 12.3775 1.52735 12.7495 2.11535 12.7495H7.05134L3.64735 20.6921C3.38601 21.2988 3.58068 22.0068 4.11668 22.3961C4.65268 22.7855 5.38201 22.7508 5.88334 22.3161L17.2153 12.4001C17.658 12.0108 17.818 11.3868 17.61 10.8375C17.402 10.2881 16.8753 9.92146 16.282 9.92146H11.346L14.75 1.9748Z" fill="black"/>
</svg>
